Coordinates
version=1
nRows=24
nColumns=24
inDegrees=yes

Units are S.I. units (second, meters, Newtons, ...)
Angles are in degrees.

endheader
time	pelvis_tilt	pelvis_list	pelvis_rotation	pelvis_tx	pelvis_ty	pelvis_tz	hip_flexion_r	hip_adduction_r	hip_rotation_r	knee_angle_r	ankle_angle_r	subtalar_angle_r	mtp_angle_r	hip_flexion_l	hip_adduction_l	hip_rotation_l	knee_angle_l	ankle_angle_l	subtalar_angle_l	mtp_angle_l	lumbar_extension	lumbar_bending	lumbar_rotation
      1.10383333	     -0.10682280	      0.76288214	     -6.24216387	     -0.07822883	      0.99526759	      0.26254277	    -13.49772260	      0.33048203	     -2.45906093	    -10.94348542	     14.29907844	     -0.51879493	     10.08253576	     20.64976571	     -0.05076687	    -10.79399438	      4.89178580	      1.55157581	     -3.13690104	      6.88025535	     -3.48773321	     -0.27540292	     13.39224813
      1.10800000	     -0.08974031	      0.86166097	     -6.30873060	     -0.07241045	      0.99474837	      0.26219559	    -13.60932028	      0.12157516	     -2.50693160	    -11.44738473	     14.35734678	     -0.31459192	     10.11127932	     20.62933489	      0.08644197	    -10.63931478	      4.66403262	      1.51909356	     -3.56203648	      6.95087004	     -3.47988701	     -0.39919180	     13.56792058
      1.11216667	     -0.05876772	      0.97380817	     -6.37072484	     -0.06653661	      0.99428073	      0.26186300	    -13.74114686	     -0.09666862	     -2.51503548	    -11.94247250	     14.38702488	     -0.20924413	     10.15444941	     20.60169662	      0.23733431	    -10.50311006	      4.35617143	      1.50193826	     -3.95556756	      7.02857520	     -3.45844291	     -0.55316429	     13.67927556
      1.11633333	     -0.03620737	      1.10378721	     -6.43785235	     -0.06062523	      0.99384036	      0.26153774	    -13.84613274	     -0.33453242	     -2.51933098	    -12.46873878	     14.39763883	     -0.11110960	     10.21423376	     20.58316505	      0.40337277	    -10.35439431	      3.99219670	      1.44751166	     -4.37139438	      7.11109016	     -3.42340476	     -0.72668796	     13.79847330
      1.12050000	     -0.01100360	      1.24727412	     -6.50643226	     -0.05466639	      0.99343748	      0.26120302	    -13.94073240	     -0.58998855	     -2.52514557	    -13.02077086	     14.37904320	     -0.01724482	     10.29885133	     20.55462290	      0.58464333	    -10.17080692	      3.59310206	      1.34741677	     -4.83371021	      7.20758958	     -3.38031325	     -0.91764435	     13.91991162
      1.12466667	      0.02572512	      1.39960762	     -6.57613088	     -0.04868536	      0.99308366	      0.26085469	    -14.02977062	     -0.85788591	     -2.53655913	    -13.60497622	     14.33736986	      0.07376164	     10.40712589	     20.51301727	      0.77820378	     -9.97790156	      3.15687677	      1.19129798	     -5.31802829	      7.31380142	     -3.34719016	     -1.12085102	     14.03684812
      1.12883333	      0.05659360	      1.56467938	     -6.64664057	     -0.04266648	      0.99275746	      0.26050467	    -14.09741016	     -1.13851105	     -2.53912637	    -14.21668916	     14.27222345	      0.14481379	     10.53214602	     20.47650885	      0.98409009	     -9.77152452	      2.68701083	      0.99188085	     -5.81610661	      7.42163910	     -3.30201875	     -1.34012765	     14.14636054
      1.13300000	      0.07965183	      1.73914156	     -6.71540845	     -0.03661635	      0.99245588	      0.26013459	    -14.13624237	     -1.43030622	     -2.55010036	    -14.86545869	     14.16284736	      0.21885637	     10.70291387	     20.44046530	      1.20299313	     -9.52795412	      2.20632327	      0.74301391	     -6.36048076	      7.55194812	     -3.24497916	     -1.56323016	     14.26435943
      1.13716667	      0.11350785	      1.92301177	     -6.78837955	     -0.03054244	      0.99220195	      0.25975858	    -14.16669096	     -1.73529305	     -2.55569447	    -15.54870228	     14.03664668	      0.27023240	     10.89182764	     20.39375949	      1.43229841	     -9.30378621	      1.70109022	      0.44301514	     -6.88784744	      7.67982734	     -3.19247204	     -1.80175822	     14.36882921
      1.14133333	      0.15313396	      2.11209683	     -6.84119064	     -0.02443171	      0.99198527	      0.25934713	    -14.19580256	     -2.04256443	     -2.58143514	    -16.24633561	     13.84195085	      0.32280118	     11.18841857	     20.33747068	      1.67707791	     -9.00797583	      1.18408560	      0.13854058	     -7.48337008	      7.86159056	     -3.14426717	     -2.04799354	     14.47353776
      1.14550000	      0.18605484	      2.31244793	     -6.90502549	     -0.01830621	      0.99179871	      0.25893207	    -14.18509776	     -2.36537273	     -2.59931145	    -17.00060343	     13.64281110	      0.35772197	     11.53137469	     20.28909040	      1.92956659	     -8.76500991	      0.65562109	     -0.23656085	     -8.02999541	      8.04770899	     -3.08213249	     -2.30624201	     14.57075652
      1.14966667	      0.21279563	      2.51775909	     -6.99239424	     -0.01217877	      0.99164392	      0.25852649	    -14.12770996	     -2.70102322	     -2.59028507	    -17.82333548	     13.42109108	      0.37218963	     11.81363846	     20.23798565	      2.17868921	     -8.56936814	      0.13867308	     -0.67449452	     -8.49426709	      8.18175618	     -3.01854249	     -2.55591244	     14.64374727
      1.15383333	      0.26739782	      2.73186057	     -7.03575107	     -0.00601958	      0.99154691	      0.25806040	    -14.10176550	     -3.03868869	     -2.62866192	    -18.64513684	     13.13478739	      0.40627491	     12.20163168	     20.16718040	      2.45706929	     -8.30888973	     -0.40522576	     -1.09497974	     -9.07461121	      8.34658175	     -2.97720403	     -2.83475195	     14.73215018
      1.15800000	      0.29574405	      2.94173371	     -7.08886192	      0.00013307	      0.99145478	      0.25758309	    -14.00679114	     -3.37368744	     -2.65059218	    -19.53603499	     12.81134557	      0.41107981	     12.66901347	     20.12287693	      2.72402273	     -8.07985339	     -0.95212230	     -1.53941192	     -9.58867202	      8.52114496	     -2.90582456	     -3.09446549	     14.80216856
      1.16216667	      0.36489928	      3.16073249	     -7.13330508	      0.00631813	      0.99145592	      0.25709358	    -13.94270622	     -3.72219634	     -2.68762171	    -20.43548287	     12.32575816	      0.27599755	     17.66323814	     20.03286007	      3.00415107	     -7.90742712	     -1.49738862	     -1.95357811	     -9.95638050	     10.20611877	     -2.87678805	     -3.37475682	     14.78151320
      1.16633333	      0.40685618	      3.38327908	     -7.18662597	      0.01247658	      0.99145231	      0.25659645	    -13.80202890	     -4.07647504	     -2.71308350	    -21.42474812	     11.92996357	      0.28433181	     17.71340570	     19.98093266	      3.28064471	     -7.76340723	     -2.06442817	     -2.37554601	    -10.33103853	     10.21705855	     -2.82174280	     -3.65265940	     14.88330674
      1.17050000	      0.46417300	      3.60762547	     -7.22223047	      0.01863694	      0.99149776	      0.25605626	    -13.65410908	     -4.43284728	     -2.75613867	    -22.45345859	     11.45697059	      0.25903912	     17.85634351	     19.89742076	      3.57121939	     -7.55986444	     -2.60151677	     -2.78594399	    -10.75827369	     10.23276180	     -2.78220055	     -3.93153293	     14.92207557
      1.17466667	      0.51983368	      3.83228139	     -7.26779494	      0.02478286	      0.99157927	      0.25552227	    -13.46604015	     -4.79308766	     -2.78027014	    -23.54093010	     10.94948420	      0.21132875	     17.97449871	     19.82450556	      3.85096977	     -7.46971548	     -3.15594133	     -3.18937463	    -11.01440694	     10.23829776	     -2.73915277	     -4.20562591	     14.92567009
      1.17883333	      0.57096568	      4.05484248	     -7.27793435	      0.03090749	      0.99167403	      0.25492621	    -13.25205365	     -5.14543827	     -2.83645397	    -24.66452013	     10.38695654	      0.19379592	     18.30236254	     19.75637872	      4.14498662	     -7.26652794	     -3.71521461	     -3.54398626	    -11.44670876	     10.25004761	     -2.70145074	     -4.48614691	     14.95851516
      1.18300000	      0.60806870	      4.27566817	     -7.29851851	      0.03700596	      0.99179263	      0.25434746	    -12.98219795	     -5.49563502	     -2.85993850	    -25.84935528	      9.79868315	      0.13521876	     18.64063065	     19.71521980	      4.42104638	     -7.20028916	     -4.29619897	     -3.91379421	    -11.68309505	     10.25253849	     -2.65083877	     -4.75980719	     14.94193240
      1.18716667	      0.70539109	      4.49961797	     -7.30750324	      0.04311253	      0.99203082	      0.25375882	    -12.76635076	     -5.85212121	     -2.88510197	    -27.03964043	      9.08758276	      0.01672219	     18.74395304	     19.59748043	      4.71039664	     -7.15137862	     -4.86123749	     -4.15057917	    -11.76611831	     10.25062616	     -2.66748343	     -5.05427052	     14.91096474
      1.19133333	      0.71294269	      4.71132088	     -7.30181346	      0.04913237	      0.99214674	      0.25311213	    -12.38993303	     -6.19285514	     -2.92882197	    -28.34544985	      8.43812223	     -0.01569154	     19.26055412	     19.58247087	      4.98496806	     -7.02670304	     -5.43294726	     -4.45708957	    -12.10208479	     10.23733781	     -2.59164509	     -5.30475902	     14.89457238
      1.19550000	      0.85328597	      4.92086314	     -7.28604072	      0.05516298	      0.99248227	      0.25247587	    -12.15957140	     -6.54130168	     -2.98578065	    -29.63043951	      7.65153492	     -0.16166652	     19.33272011	     19.41553005	      5.27038116	     -7.01153032	     -5.99476354	     -4.61123989	    -12.13765512	     10.23379413	     -2.66789976	     -5.57172269	     14.84922094
      1.19966667	      0.90488750	      5.14314067	     -7.28314012	      0.06116473	      0.99274035	      0.25182575	    -11.78405145	     -6.89769591	     -2.98776885	    -30.97507346	      6.81030194	     -0.35921688	     23.99826154	     19.29959135	      5.57070373	     -6.86185228	     -6.45567839	     -4.90088127	    -12.47994617	      9.98032159	     -2.64412585	     -5.83870808	     14.78891002
